# xmcd
#
# Track frame offsets: 
#        150
#        20110
#        44445
#        66345
#        89635
#        110520
#        135420
#        150340
#        183235
#        198225
#        216740
#
# Disc length: 3104 seconds
#
# Revision: 0
# Processed by: cddbd v1.4PL0 Copyright (c) Steve Scherf et al.
# Submitted via: ExactAudioCopy v0.90b3
#
DISCID=a00c1e0b
DTITLE=Tater - Fat Sack
DYEAR=2002
DGENRE=
TTITLE0=Twenty Pound Test of Love
TTITLE1=The Last Bandito
TTITLE2=Over the Falls
TTITLE3=Shake a Leg
TTITLE4=Mr. Death
TTITLE5=Surfin' for Souls
TTITLE6=Ride the Wind
TTITLE7=It's All Good
TTITLE8=Warm Shot of Liquor
TTITLE9=On My Way
TTITLE10=Turnaround
EXTD=
EXTT0=
EXTT1=
EXTT2=
EXTT3=
EXTT4=
EXTT5=
EXTT6=
EXTT7=
EXTT8=
EXTT9=
EXTT10=
PLAYORDER=
